# xmcd
#
# Track frame offsets:
#	150
#	20855
#	36240
#	48608
#	59025
#	69200
#	80353
#	95648
#	111088
#	122905
#	138635
#	155243
#
# Disc length: 2290 seconds
#
# Revision: 0
# Processed by: cddbd v1.5.2PL0 Copyright (c) Steve Scherf et al.
# Submitted via: EZCDAudioConverter 1.3.4.1
#
DISCID=b508f00c
DTITLE=T. Rex - Dandy In The Underworld
DYEAR=1900
DGENRE=
TTITLE0=Dandy In The Underworld
TTITLE1=Crimson Moon
TTITLE2=Universe
TTITLE3=I'm A Fool For You, Girl
TTITLE4=I Love To Boogie
TTITLE5=Visions Of Domino
TTITLE6=Jason B. Sad
TTITLE7=Groove A Little
TTITLE8=The Soul Of My Suit
TTITLE9=Hang-Ups
TTITLE10=Pain And Love
TTITLE11=Teen Riot Structure
EXTD=
EXTT0=
EXTT1=
EXTT2=
EXTT3=
EXTT4=
EXTT5=
EXTT6=
EXTT7=
EXTT8=
EXTT9=
EXTT10=
EXTT11=
PLAYORDER=
